<svg width="108" height="50" viewBox="0 0 108 50" fill="none" xmlns="http://www.w3.org/2000/svg">
<path d="M67.762 32.002H71.902V34H65.242V21.436H67.762V32.002ZM77.9317 34.162C76.9717 34.162 76.1077 33.952 75.3397 33.532C74.5717 33.1 73.9657 32.494 73.5217 31.714C73.0897 30.934 72.8737 30.034 72.8737 29.014C72.8737 27.994 73.0957 27.094 73.5397 26.314C73.9957 25.534 74.6137 24.934 75.3937 24.514C76.1737 24.082 77.0437 23.866 78.0037 23.866C78.9637 23.866 79.8337 24.082 80.6137 24.514C81.3937 24.934 82.0057 25.534 82.4497 26.314C82.9057 27.094 83.1337 27.994 83.1337 29.014C83.1337 30.034 82.8997 30.934 82.4317 31.714C81.9757 32.494 81.3517 33.1 80.5597 33.532C79.7797 33.952 78.9037 34.162 77.9317 34.162ZM77.9317 31.966C78.3877 31.966 78.8137 31.858 79.2097 31.642C79.6177 31.414 79.9417 31.078 80.1817 30.634C80.4217 30.19 80.5417 29.65 80.5417 29.014C80.5417 28.066 80.2897 27.34 79.7857 26.836C79.2937 26.32 78.6877 26.062 77.9677 26.062C77.2477 26.062 76.6417 26.32 76.1497 26.836C75.6697 27.34 75.4297 28.066 75.4297 29.014C75.4297 29.962 75.6637 30.694 76.1317 31.21C76.6117 31.714 77.2117 31.966 77.9317 31.966ZM88.8882 23.866C89.6322 23.866 90.2862 24.016 90.8502 24.316C91.4142 24.604 91.8582 24.982 92.1822 25.45V24.028H94.7202V34.072C94.7202 34.996 94.5342 35.818 94.1622 36.538C93.7902 37.27 93.2322 37.846 92.4882 38.266C91.7442 38.698 90.8442 38.914 89.7882 38.914C88.3722 38.914 87.2082 38.584 86.2962 37.924C85.3962 37.264 84.8862 36.364 84.7662 35.224H87.2682C87.4002 35.68 87.6822 36.04 88.1142 36.304C88.5582 36.58 89.0922 36.718 89.7162 36.718C90.4482 36.718 91.0422 36.496 91.4982 36.052C91.9542 35.62 92.1822 34.96 92.1822 34.072V32.524C91.8582 32.992 91.4082 33.382 90.8322 33.694C90.2682 34.006 89.6202 34.162 88.8882 34.162C88.0482 34.162 87.2802 33.946 86.5842 33.514C85.8882 33.082 85.3362 32.476 84.9282 31.696C84.5322 30.904 84.3342 29.998 84.3342 28.978C84.3342 27.97 84.5322 27.076 84.9282 26.296C85.3362 25.516 85.8822 24.916 86.5662 24.496C87.2622 24.076 88.0362 23.866 88.8882 23.866ZM92.1822 29.014C92.1822 28.402 92.0622 27.88 91.8222 27.448C91.5822 27.004 91.2582 26.668 90.8502 26.44C90.4422 26.2 90.0042 26.08 89.5362 26.08C89.0682 26.08 88.6362 26.194 88.2402 26.422C87.8442 26.65 87.5202 26.986 87.2682 27.43C87.0282 27.862 86.9082 28.378 86.9082 28.978C86.9082 29.578 87.0282 30.106 87.2682 30.562C87.5202 31.006 87.8442 31.348 88.2402 31.588C88.6482 31.828 89.0802 31.948 89.5362 31.948C90.0042 31.948 90.4422 31.834 90.8502 31.606C91.2582 31.366 91.5822 31.03 91.8222 30.598C92.0622 30.154 92.1822 29.626 92.1822 29.014ZM101.609 34.162C100.649 34.162 99.7855 33.952 99.0175 33.532C98.2495 33.1 97.6435 32.494 97.1995 31.714C96.7675 30.934 96.5515 30.034 96.5515 29.014C96.5515 27.994 96.7735 27.094 97.2175 26.314C97.6735 25.534 98.2915 24.934 99.0715 24.514C99.8515 24.082 100.721 23.866 101.681 23.866C102.641 23.866 103.511 24.082 104.291 24.514C105.071 24.934 105.683 25.534 106.127 26.314C106.583 27.094 106.811 27.994 106.811 29.014C106.811 30.034 106.577 30.934 106.109 31.714C105.653 32.494 105.029 33.1 104.237 33.532C103.457 33.952 102.581 34.162 101.609 34.162ZM101.609 31.966C102.065 31.966 102.491 31.858 102.887 31.642C103.295 31.414 103.619 31.078 103.859 30.634C104.099 30.19 104.219 29.65 104.219 29.014C104.219 28.066 103.967 27.34 103.463 26.836C102.971 26.32 102.365 26.062 101.645 26.062C100.925 26.062 100.319 26.32 99.8275 26.836C99.3475 27.34 99.1075 28.066 99.1075 29.014C99.1075 29.962 99.3415 30.694 99.8095 31.21C100.289 31.714 100.889 31.966 101.609 31.966Z" fill="white"/>
<circle cx="25" cy="25" r="25" fill="#5871EB"/>
</svg>
